<?xml version="1.0" encoding="UTF-8"?>
<svg version="1.1" viewBox="0 0 1200 846" width="1200" height="846" xmlns="http://www.w3.org/2000/svg">
<path transform="translate(908,54)" d="m0 0h33l15 15 2 5 4 6 5 5 2 7 2 2 1 7 11 11 3 5 4 15 3 12 4 9 1 18 2 4 1 16 4 15 4 5 5 11v34l-2 9-4 7-2 8-2 2-2 7-9 9-1 24-8 14-7 8-8 8-1 16-6 25-8 21-3 10-5 12-9 27-1 2-1 10-4 6-10 25-2 8-2 4-1 10-5 12-5 13-8 19-9 23-5 27-1 3-1 12-6 10-2 7-2 12-10 22-4 13-2 4-2 7-2 5-4 5-3 5-15 15-10 2-3 3-19 1-12 4-16 8-4 4-14 3-8 1h-33l-5-4-5-3-7-6-10-2-11-1-10-10-8-7-11-11-4-8-3-10-7-8-5-5-1-5-1-21-7 2-2 11-19 19-6 11-7 11-21 21-9 6-4 2h-48l-12-2-11-2-10-6-19-19-5-9-2-5-74-1-21-2-9-2-8-6-5 2-10 5-8 2h-35l-33-5-8-6-8-7-9-9v-2h-12l-12-5-11-8-8-6-16-16-5-10-1-4v-34l2-5 1-20 7-7 2-38 2-2 1-19 3-12 6-10 8-11 26-26 13-10 16-11 16-9 8-4 5-3 6-3 14-12 14-11 14-12 11-10 11-9 7-7 5-3 5-5 6-2 12-9 16-10 11-5 11-4 18-4 40-4 3-1 56-3 21-1 9-1h37l10 2 32 2h21l6-1 1-21 5-8 13-13 21-1 9-5 6-5 7-1 8-8 25-1 1-1 10-1 7-7 16-8 7-6h5l1-4 9-10 7-7 4-10 5-5 2-26 13-13 7-8 9-9 4-3h6v-21l15-15 7-3 3-5 13-13z" fill="#0D170A"/>
<path transform="translate(923,84)" d="m0 0h3l2 5 1 1v5h-5l-1 5 11-1 3 1-1 4-1 3 6 2-2 2v2l1 5 2 1 1 4 5-1 2 5 3 1v2l3 2 3 13 2 4 2 10 3 6 1 4 1 17 2 4-1 13 3 6 3 12 4 5 5 12-2 12-4 7-2 8-3 3v5l-7-2-5-6-3-3-2-9-4-6-8 2-1 1 1 9 2 5v6l-1 3 3 5 5 3v8l2 5-2 6-5 5 1 4 3 3v4l-9 1-3 3-5 10v10l3 8-1 10-6 23-7 18-3 9-5 12-8 25-2 5-2 12-3 4-5 12-5 13-2 8-2 4-1 10-5 12-6 15-12 29-4 11-5 26-2 10v6l-6 10-2 6-2 12-7 16-8 22-4 13-4 3-3 7-4 1-5 1-4 2-1 2h-14l-12 3-22 10-3 4-15 3-10 1-5-4-5-3-7-6-9-2-12-1 1-2 2-1v-2l-6-2-4-3-7-3-6-15-2-7-6-5-5-5-1-8v-11l-1-1v-11l-1-6 4-3 2-6-6-7-12 3-27 9-26 8-1 5-1 14-1 3-2 1h-6l-2-1v-2l8-1 1-20-1-4 13-4 6-3 25-8 15-5 10-3-1-3-9 2-45 15-4 2-4-1v-6l10-5 41-14 4-2-2-2-5-15-2-16 4-2v-2l-4-1-1-3 4-10 4-1-1-5 6-7-1-11-15 3-28 7-5-1 3-2 30-7 12-3 18-5 3-5v-1l-33 8-17 4-9 2h-7l1-2 15-3 15-4 33-8h4l3-12 5-1 3-5 2-7v-35l-4-22v38l2 13v7l-2 2h-11l-2-5v-9l1-4h4l-2 4v7l2 4 7 1v-7h-5l1-6-1-1v-3l1-11v-12l1-2h-13v3l6-1 1 2-2 1-14 2h-10l2-2 16-2v-3l-16 3h-8l-3 2h7v3l-39 3h-8l1-3h4l-1-8-4-1 4-2-1-19-1-2 2-8-1-5-7-1-1 13h-1l-2-17-1-6h3v2l3-1 1-6-3-3-2 5-7 8h-2l2-5 5-8v-2l-4-3 1-6 14-21 9-10 8-4 10-3 9-1h22v1l-18 2-16 2-12 5-5 5-6 7-11 17-2 6h4l10-16 7-9 8-7 7-3 7-2h26l1-2v2l3 1 5 12 7 44 4 34v4h2l-1-37-1-18-3-13-1-4 3 1 2 4-1-8 1-17h-7l1-3h6v-9l4-4v-2l3-3 4-8 10-14 2-4 1-10-2-7 3-6h7l5 1 8-1 10-6 6-5h3v6h4l1-4 8-1v3h3l1-10 1-1h7l4 3 10 1-1-3 1-2-3-1 3-2 6 1 3 8 2 5 2-4 3-4-4-1 1-7 1-4 18-10 8-7 5 5v4h-2l-2 6-2 4h2l3-5 9-3-2-4-2-5-1-5 6-4 4-5 4-2 1-2-4 1 1-4 5-5h2l1 7-4 7v3l4-1 4-5 3-7 7-8 7 5-1-4 3 1 1 6 3-1v-7l-9-1-7-2-1-5v-3l2-6 3-1 5 1-2-7 5 1 1 4-2 7 3-2v-5l2-4v-3l-4-2v-2h3l-2-2-4-1-2-4v-3l2-1-1-7h3l1-3 2 4 1-3h2v2l4 1 2 8 4-1 2-9 1-1h8l-2-7 1-4 10 3 5-1v-6l-1-3 3-7 3-2 1-9-4-8 2-3-6-1-3-3 1-2 6 1 4 2 2-5 4-4 5-2-2-7 5 1-2-5z" fill="#40702F"/>
<path transform="translate(908,54)" d="m0 0h33l15 15 2 5 4 6 5 5 2 7 2 2 1 7 11 11 3 5 4 15 3 12 4 9 1 18 2 4 1 16 4 15 4 5 5 11v34l-2 9-4 7-2 8-2 2-2 7-9 9-1 24-8 14-7 8-8 8-1 16-6 25-8 21-3 10-5 12-9 27-1 2-1 10-4 6-10 25-2 8-2 4-1 10-5 12-5 13-8 19-9 23-5 27-1 3-1 12-6 10-2 7-2 12-10 22-4 13-2 4-2 7-2 5-4 5-3 5-15 15-10 2-3 3-19 1-12 4-16 8-4 4-14 3-8 1h-33l-5-4-5-3-7-6-10-2-11-1-10-10-8-7-11-11-4-8-3-10-7-8-5-5-1-5-1-21-7 2-2 11-19 19-6 11-7 11-21 21-9 6-4 2h-48l-12-2-11-2-10-6-19-19-5-9-2-5-74-1-21-2-9-2-8-6-5 2-10 5-8 2h-35l-33-5-8-6-8-7-9-9v-2h-12l-12-5-11-8-8-6-16-16-5-10-1-4v-34l2-5 1-20 7-7 2-38 2-2 1-19 3-12 6-10 8-11 26-26 13-10 16-11 16-9 8-4 5-3 6-3 14-12 14-11 14-12 11-10 11-9 7-7 5-3 5-5 6-2 12-9 16-10 11-5 11-4 18-4 40-4 3-1 56-3 21-1 9-1h37l10 2 32 2h21l6-1 1-21 5-8 13-13 21-1 9-5 6-5 7-1 8-8 25-1 1-1 10-1 7-7 16-8 7-6h5l1-4 9-10 7-7 4-10 5-5 2-26 13-13 7-8 9-9 4-3h6v-21l15-15 7-3 3-5 13-13zm15 30-2 4 2 3-5-1 2 7-6 3-5 6v2l-6-3-5 1 1 3 5 2h3l-2 4 2 3 2 4-1 9-5 5-1 5 1 2v6l-5 1-11-3 1 7 1 4h-8l-1 1-2 9-4 1-3-9h-3v-2h-2l-1 3-2-4-1 3h-3l1 7-2 1 1 5 1 2 5 1 1 2h-3v2l4 2-1 6-1 2-1 5-2 1 2-9-3-3-3 1 2 6-6-1-3 3-1 4v3l2 6 11 1 4 1v7l-3 1-2-7h-2l1 4-7-5-8 9-4 9-3 3h-3l1-6 3-4-1-7-4 2-4 4v3l4-1-3 3-5 4-3 3-4 3 1 5 3 6 1 3-9 3-3 5-2-1 4-7v-2l3-1-2-4-4-4-8 7-18 10-1 4-1 7 4 1-3 4-2 4-3-8-2-5-6-1-3 3h3l-1 3 1 2-10-1-4-3h-7l-1 3-1 8h-3v-3l-8 1-1 4h-4v-6l-5 1-8 7-6 3-10 1-3-1h-7l-3 7 2 9-1 7-3 5-11 16-2 3-4-2-1-2-3 1h-19l-48-2-14-1-11-2-35 1-10 1-61 4-38 5-20 6-12 5-4 3-14 8-4 4-9 6-4 1-1 3-9 6-5 5-7 5v2l-4 2-5 5-13 11-11 9-10 8-3 2v2l-4 2-11 9-7 3-4 3-7 3-18 10-14 10-14 12-5 4-8 10-8 12-3 9-1 5-1 20-2 1-1 8v16h2l-1 7 2 4h2v2l-6 2-5 4v2h-2l-1 2v18l-2 5 1 10 5 10 10 8 12 7 9 4h10l5-4h2l4 11 4 5 3 5 11 8 31 4 10-1 11-3 7-6 5-6v-2l21 2 2 4 5 5 6 4 8 2 15 1 1 1 11 1h47l31-4 1 7 6 16 5 9 7 7 8 4 12 3 10 1h20l10-6 10-10 10-17 6-14 3-14 1-7v-33l-4-19-6-14-2-2 1-1-1-8-7-14h14l6 8 4 13 2 13v12l-1 20 4 1v9l10-3 10-4 22-7 8-3 14-5 3 1-10 3-45 15-7 3-7 2 1 9-1 15-8 1v2l2 1h6l2-1 1-3 1-18 8-3 37-12 19-6 4 2 4 6-2 5-4 3 1 11v6l1 1v15l3 7 8 6 2 5 6 16 4 4 5 2 7 4h2v3h-3v2l17 2 7 3 6 6 10 5 19-3 5-2 4-4 22-10 10-2h14l3-3 5-2h5l3-5 2-4 3-2 2-5 2-8 8-22 5-11 3-8 2-12 5-10 2-3 1-13 3-13 4-20 12-29 8-19 5-13 1-2 1-10 3-6 2-9 4-10 6-14 3-5 2-12 4-11 8-24 4-8 3-10 6-16 5-20 1-10-3-8v-10l6-12 2-1 9-1-1-5-3-3v-3l5-5 2-6-2-5v-8l-6-4-2-5 1-2v-6l-3-8v-6l3-2 6-1 5 8 2 9 5 5 4 3 5 1v-5l4-5 2-8 4-8 1-9-6-14-3-3-4-14-2-4 1-13-2-4-1-17-3-9-2-3-2-10-2-5-2-10-3-2v-3h-3l-2-5-5 1-1-4-2-1-2-7 3-1-1-2-5-1 2-4v-3l-9-1-5 1 1-5h5v-5l-2-2-1-4z" fill="#FCFCFC"/>
<path transform="translate(589,329)" d="m0 0h15l21 1 18 2 21 1 4 1 1 2v12h-6v2l6 1v21l1 2v8l-2-4-1-6-2 1 3 9 1 6 1 24v31h-2l-2-15-5-36-5-31-5-12-3-1-26 1-12 4-8 6-6 7-10 16-5 5v-2h-2l1-6 9-14 6-8 5-6 12-6 9-2 15-2h-9l-14 2-9 4-6 4-7 8-13 20-1 6 4 3-2 5-6 10 5-5 6-8 3 1 1 4-2 5h-3v-2h-3l2 6 1 11 2-7 3-1 5 1 1 6-2 9 1 1v19l-3 2 4 1v8h-4v2l16-1 17-1h13v-3l-7 1-1-2 6-2 14-1 2-1h6v3l-16 3h8l14-2-1-1h-4v-3l9-1 4 1v20l-2 7h3v2h-2l-1 6 3-1 2 1 1 5-1 2h-7l-3-5v-7l3-4h-4v13l1 4h11l1-3-1-13-1-5v-45h1l5 29v35l-3 9-4 4h-3l-4 12-37 9-25 6-5 1 12-1 15-4 39-9-2 6-4 3-46 11-14 4 8-1 22-5 12-3 6-1 1 12-6 7 1 6-5 1-3 10v2l4 1 1 3-5 1 4 20 4 11-4 3-36 12-10 4h-3v-13l2-26v-73l-2 18 1 4 1 16-1 32-3 40-1 8h-2v-25l-2-18-4-16-7-9-8-2-13 2-9 3-23 4-10 2-13 2-8 1-3-2v2l-13 1-5 2-12 1-42 1h-32l-39-2-9-1v-8l2-18 2-2 18 1-1 10h33l28-1 24-2 17-2 12-6 2 1-1-4 4-10 1-10-1 1-1 9-5 10-7 6-10 2-20 2 4-16 5-13 1-1 15-2 14-1 5-1-1-1-24 2h-7l2-6 7-10 7-9 8-9 8-7 8-8 8-7 13-10 12-8 12-2 12-6v2l5 2 4 3 1-1-8-6v-4l6-9 8-14 4-8 4-7 6-10 10-16 10-17 2-1-4-4-4-3-17-4 5-4 6-3z" fill="#FCFCFC"/>
<path transform="translate(537,327)" d="m0 0h46l1 2-12 4-11 7h-27v-2l-5 2-18-1v1l6 1h13l3 1h32l15 3 6 4-1 5-4 7-10 16-5 9-10 17-3 3-3-4-1 1 2 4-14-3-1-3 3-1-1-3-2 2-2 3v-6h-3v8h5l9 3 6 3-2 6-7 12-6 8-6 2v2l-8 2h-13l-40 2-102-1-41-1h-4-10v-3l3-5h-2l-2 5-2 2-18-1v-4l9-8h2l1-3 6-4 8-7 4-6 8-7 13-10 7-6h2l1-3 12-9h3l2-4 17-12 14-7 18-4 34-4 26-3 4 1v-3l-33 4-28 3v-2l6-3h3v-2l5-2 23-3 35-3 18-1h24z" fill="#FCFCFC"/>
<path transform="translate(291,442)" d="m0 0 16 1 35 1 92 1h29l7 1-2 2-16 8-16 9-15 9-4 1v2l-9 5-14 9-11 8-1 2 21-14 15-9 17-10 13-8 7-4 14-7 5-3 7-1 30-1-5 5-12 8-8 7h-2v2l-8 7-11 11-7 6-9 11-10 16-2 3-33 3-14 1-5 2h-6v1l-12 1-7 8-4 8-22-1-1-4-7-1-3-1-15-1-15-3-24-2-16-2h-22l-3-1v2h2v2h-7l-2-4v10l-5 4-4-3 4-3 4-13 3 2-2-6 1-4-13-8-6-3 5-9 12-14 10-9 18-13 13-8 6-2-3 5-14 15-10 15-4 7-1 4 4-4 4-6 15-14 8-7h2v-2l4-2 5-5 7-6 5-5z" fill="#FCFCFC"/>
<path transform="translate(505,571)" d="m0 0h8l-2 6-11 21-7 16-7 22-7 25-2 4-11 2-5 1-11 2-8 1-29 1-39-1-16-2-9-5-3-3v-2h69l5-1-1-2-18-1h-13l-1-2-2 2-35-1-21-1-29-4-16-2-9-2-18-3-8-2-20-4-20-7-16-7-5-1v-2h-2l-3-9v-7l1-5 10 2 9 3 16 5 25 5 21 3 11 2 25 3 11 2 65 5 24 1h38l15-1 13-2 21-3v-2l-18 3-25 3h-56l-19-1-22-2-40-3-27-4-15-2-12-2-19-3-13-3-9-3-18-5-10-3 1-7 5 1 8 4 12 3 24 3 11 3 24 4 36 4 15 2 53 3 6 1 27 1h28l23-3 14-4 5-1v-3l-6 2h-38l-48-2-35-2 1 2 56 3 53 1 4 1-2 1-14 1-9 2-17 1-46-2-26-2-37-2-9-2-31-3-16-3-18-3-3-2 5-2v-2l5-4 3 3 15 2 10 2 31 3 1 1 18 2 1 1 15 2 9 1v-2h-3v-3l58 3 8-1 2-5 45-3 18-2h10v-3l-20 2-6 1-47 3-3 2-1 3h-22l-35-2-2-6-2 5-6 1v5l-18-3 4-13 4-12h22l20 1h79l21-3 3-1 17-2z" fill="#FCFCFC"/>
<path transform="translate(627,340)" d="m0 0h22v1l-18 2-16 2-12 5-5 5-6 7-11 17-2 6h4l10-16 7-9 8-7 7-3 7-2h26l1-2v2l3 1 5 12 7 44 4 34v4h2l-1-37-1-18-3-13-1-4 3 1 2 4-1-8 1-17h-7l1-3h8l2 4v47l1 11 2 9 5 38v28l-2 2-1-35-4-22v38l2 13v7l-2 2h-11l-2-5v-9l1-4h4l-2 4v7l2 4 7 1v-7h-5l1-6-1-1v-3l1-11v-12l1-2h-13v3l6-1 1 2-2 1-14 2h-10l2-2 16-2v-3l-16 3h-8l-3 2h7v3l-39 3h-8l1-3h4l-1-8-4-1 4-2-1-19-1-2 2-8-1-5-7-1-1 13h-1l-2-17-1-6h3v2l3-1 1-6-3-3-2 5-7 8h-2l2-5 5-8v-2l-4-3 1-6 14-21 9-10 8-4 10-3z" fill="#0F1B0B"/>
<path transform="translate(533,586)" d="m0 0h13l8 4 9 9 2 3 3 16v31l-3 18-6 17-6 10-4 4h-2v2l-10 6-3 1h-8l-6-3-8-7-6-13-4-13-1-7v-22l3-14 5-15 9-14 5-6h2l2-4z" fill="#101A0C"/>
<path transform="translate(581,329)" d="m0 0 4 2-12 4-6 4 15 4 7 5 2 5h-3l-10 18-5 7-4 7-6 10-5 9-12 22-6 8 2 4 8 6-3 1-10-7-6 4-5 2-12 2-13 9-12 9-17 16-9 8-7 8-10 14-5 9 32-3v2l-5 2-21 2-8 1-6 16-4 13 10-2 17-2 7-4 4-5 4-10v-8l2-1 1 2-1 10-4 10v4l-5 1-4 3-5 2-28 3-13 1-28 1h-31l-2-1v-2l3-1 1-5 7-12 5-5-4 2-3 3h-2l2-4 5-5 11-1 2-1 9-1 1-1 37-3 10-1 10-17 9-10 7-8 8-7 8-8h2l1-3h2v-2l13-10 11-8 1-1-28 1-7 1-5 3-17 8-10 7-16 9-13 8-18 11-11 8h-2l2-4 10-7 11-7 10-6h2v-2l18-10 13-8 17-9 3-1-9-1h-25l-30-1v-1l70-1 38-2h10l8-1v-2l6-3 6-8 6-11 3-6-10-3-7-2-4-1v-8l4-1 1 4 3-3 2 2-1 3-2 1v2l9 1 5 2-4-6 4 1 3 3 10-18 5-7 6-11 7-11 3-6v-3l-8-4-12-2h-34l-5-1h-10l-6-2 1-2 19 1 4-1v2l27-1 13-8z" fill="#121F0D"/>
<path transform="translate(533,586)" d="m0 0h13l8 4 9 9 2 3 3 16v31l-3 18-6 17-6 10-4 4h-2v2l-10 6-3 1h-8l-6-3-8-7-6-13-4-13-1-7v-22l3-14 5-15 9-14 5-6h2l2-4zm4 16-10 5-5 4-6 10-4 11-2 11v19l4 13 7 11 6 3h8l8-4 9-10 4-9 4-17v-17l-4-15-5-8-6-6z" fill="#FDFDFD"/>
<path transform="translate(243,536)" d="m0 0h1l2 30 2 18v5h5l-3-33v-8h2l1 3 3 34 1 5h7v2h4l-1-12v-10l2 1 2 22 16 2-1-30-5 2h-3l2 26h-2l-1-2-1-24-9-1-1-1-1-12v-10l2-1 1 11h8v-15l3-1 14 1 5 1-1 2h-6l-2 9-2-1v-9h-9v13h11l1 1v33l-1 9h10l7 1v-49l1-5h1v53l-1 2 9 1 1-2 1-42h1v45h2v-2h3l4-16 4-1-5 18-1 2 14 2 3 2v-5l6-1 1-5 2-1 1 6 57 3 1-4 3-2 49-3 4-1 20-1v3l-23 2-5 1-35 2h-10l-1 5-4 2-47-2-16-2v3h3v2h-12l-12-2-1-1-18-2-1-1-38-4-20-4-2-2-2 3h-2v2l-4 2 6 2 21 3 9 2 31 3 9 2 54 3 9 1 50 2 18-2 7-1 8-1-52-1-56-3-1-3h15l38 2 31 1h37l6-1v3l-10 3-9 3-23 3h-28l-27-1-6-1-53-3-44-5-15-2-25-5-2-1-24-3-6-1v-1l9-1 7 1h12l6-3 4-5-3-1-4-9-2-12 3 1 5 15 2 4-2-26v-11z" fill="#15250F"/>
<path transform="translate(622,351)" d="m0 0h13l4 6 5 12 6 33 5 36v6l-9 2h-9l1-2v-17l-3-16-3-5-12-5-2-2-2 1-19-3-7-2-3-6 1-4 9-15 2-4 2 3 1-3h2l1-3 8-5 11-3 10-1h-13l-13 5-4 2 4-5 7-3z" fill="#FCFCFC"/>
<path transform="translate(374,460)" d="m0 0 5 2 7 3 1 1v9h-3l-2 6-9 12-2 3h-2l-2 4-3 4h-4l-4-5-40-1-1-5-7 3-5 2h-3l1-5h-2l1-3 7-1 1-4 9-7 22-14 3-2 11-1h20z" fill="#1A2E13"/>
<path transform="translate(584,390)" d="m0 0 3 1 1 4-2 5h-3v-2h-3l2 6 1 11 2-7 3-1 5 1 1 6-2 9 1 1v19l-3 2 4 1v8h-4v2l2 2h-3l3 21v5h-2l-1-2-1-12-1-3-3 5-1-2 3-6v-6h-13l-18-1-1-5-2-3v-7l4-10 12-23 4-6 4-2z" fill="#1C3014"/>
<path transform="translate(516,573)" d="m0 0h8l22 5 10 8 3 4-1 2-7-6-7-2h-10l-8 4-10 11-8 13-4 10-3 12-1 9v20l2 14 4 13 6 9 8 7 8 3 11-2 5-3h2v2l-6 4-7 4-7 1-22-2-3-1-8-16-3-8-2-9 1-7h1l4 16 4 10 6 9-2-5-7-16-3-8-1-13h-2v6l-4-2 2-6h-3l-2 4-2-1 2-7 1 3h2l2-6h1l1 5 3-29 4-13 8-18 7-11 7-7 1-3h-2l-2 4-5 5-5 8-2-1 1-3h2l1-4 6-11z" fill="#FCFCFC"/>
<path transform="translate(592,398)" d="m0 0 17 3 12 3 9 4 1 8 2-3 3 16v14l-10 5-17 4-12 1 1-4h-2v-4l10-2v2h2v-3l9-2h9l6-1 1-4-1-15v17l-4 1-17 1-9 3h-6l-1-6 1-16v-12h11v-3h-2v-2l-11-1-2-1v3h-4l1-5z" fill="#FDFDFD"/>
<path transform="translate(235,531)" d="m0 0h9l5 1 44 3 5 2v2l-21-1-1 15h-8l-2-10v10l1 12 9 2 1 5 1 21h2l-1-2-1-13v-11l9-3v31h-10l-7-2-2-22v21h-4v-2l-7 1h-1l-2-14-2-26v-10l1-5 2-1-20-1z" fill="#152510"/>
<path transform="translate(300,537)" d="m0 0 8 1 9 2-1 2-4 1 5 1v30l-1 25-9-1v-50l-1 49-17-1v-42l-11-1v-13h9l1 9 1-3 1-6 7 1 1 52 2 1z" fill="#FDFDFD"/>
<path transform="translate(245,590)" d="m0 0 4 3 15 2 10 2 31 3 1 1 18 2 1 1 15 2h10l1 1 56 3 53 1 4 1-2 1-14 1-9 2-17 1-46-2-26-2-37-2-9-2-31-3-16-3-18-3-3-2 5-2v-2z" fill="#FAFBFA"/>
<path transform="translate(648,346)" d="m0 0 1 2 3 1 5 12 7 44 4 34v3l-2 1h-9l-5-35-1-6h-2l-6-33-5-12-2-4 1-2 4 2v2l3 1 2 2-5-7h6v-2h-25v-1h26z" fill="#0B1308"/>
<path transform="translate(631,342)" d="m0 0h21l5 5 3 6 3 10 2 10 3 9 1 6 1 24v31h-2l-2-15-5-36-5-31-5-12-3-1-26 1-12 4-8 6-6 7-10 16-5 5v-2h-2l1-6 9-14 6-8 5-6 12-6 9-2z" fill="#FCFCFC"/>
<path transform="translate(322,478)" d="m0 0h25l17 2v2l-5 1 2 2 3-2h3l3 8-2 4-5 6-4 1-3-3-40-1-1-5-5 1 1-5h2l-1-4 5-4z" fill="#364033"/>
<path transform="translate(584,390)" d="m0 0 3 1 1 4-2 5h-3v-2h-3l2 6 2 28-5 7-2 9-11 2h-7l-5-2 1-9 9-17 5-10 9-14z" fill="#FDFDFD"/>
<path transform="translate(258,603)" d="m0 0 9 1 25 3 16 2 5 1 54 3 9 1 50 2 18-2 7-1 8-1-52-1-56-3-1-3h15l38 2 31 1h37l6-1v3l-10 3-9 3-23 3h-28l-27-1-6-1-53-3-44-5-15-2-3-1z" fill="#172811"/>
<path transform="translate(397,525)" d="m0 0h10l-5 5-3 4-1 3v17h-42l7-12 6-8 3-3 12-2 4 1 1-2v8l-3 15-1 2h2l1-7 3-13-1-7z" fill="#F5F6F5"/>
<path transform="translate(539,620)" d="m0 0 3 4 4 13v12l-4 13-6 9-2 1v-2l-7-2-4-10v-13l4-13 6-7h4z" fill="#FDFDFD"/>
<path transform="translate(352,584)" d="m0 0h36l62 1 1 2-7 1h-25l-2 6h-5l-1 3h-15-3l-28-2-11-1-2-5z" fill="#13220E"/>
<path transform="translate(591,507)" d="m0 0h1v75l-3 39 16-6 33-11 1-1h5l-3 3-19 7-27 9-6 3v6l5-1 15-5 8-3 30-10 4 1-10 5-14 4-8 3-24 8-10 4h-1v-9l-4-1 1-20v-12l-4-24 2-3 5 21 1 13v15l-1 10h2l1-23 2-25 1-33-1-15-1-5 2-17z" fill="#121F0D"/>
<path transform="translate(663,348)" d="m0 0h8l2 4v47l1 11 2 9 5 38v28l-2 2-1-35-4-22v38l2 13v7l-2 2h-11l-2-5v-9l1-4h4l-2 4v7l2 4 7 1v-7h-5l1-6-1-1v-3l1-11v-12l1-2-6-1 2-3 4 1-1-37-1-18-3-13-1-4 3 1 2 4-1-8 1-17h-7z" fill="#080F06"/>
<path transform="translate(650,402)" d="m0 0 2 2 2 8 3 26v5h8v3h-8v3l6-1 1 2-2 1-14 2h-10l2-2 16-2v-3l-16 3h-8l-3 2h7v3l-39 3h-8l1-3h4l-1-8-4-1 4-2-1-19-1-2 4-14h1l1 18-1 16 13-3 2-1 21-1-1-2v-16l2 1 1 15-2 5-10 1-14 1v3l-3-1-9 1v4h2v3l12-1 19-5 4-1 2 1 20-2-5-34z" fill="#182A11"/>
<path transform="translate(416,524)" d="m0 0 5 2 2 4h2l5 7-2 10-2 5-5 1-22 1v-16l3-6 9-7z" fill="#FDFDFD"/>
<path transform="translate(673,368)" d="m0 0 2 4 2 15 5 10 3 4v14l2 7 7 13 1 4-3 5-5 2h-7l-2-6-4-28-1-2-1-11z" fill="#FDFDFD"/>
<path transform="translate(261,538)" d="m0 0 5 1v14l1 12 9 2 1 5 1 21h2l-1-2-1-13v-11l9-3v31h-10l-7-2-2-22v21h-4l-2-18-2-34z" fill="#FDFDFD"/>
<path transform="translate(536,606)" d="m0 0h8l6 5 5 10 2 8 1 12-2 17-5 13-8 11-5 3h-9l-4-2v-1l9-2 5-3 4-6 6-22-1-16-2-12-4-8-5-1-7-1v-2z" fill="#FDFDFD"/>
<path transform="translate(581,329)" d="m0 0 4 2-12 4-6 4 15 4 7 5 2 5h-3l-10 18-5 7-4 7-6 10-5 9-12 22-6 8 2 4 8 6-3 1-10-7-6 4-5 2h-4l1-3 7-1v-2l6-3 6-8 6-11 3-6-10-3-7-2-4-1v-8l4-1 1 4 3-3 2 2-1 3-2 1v2l9 1 5 2-4-6 4 1 3 3 10-18 5-7 6-11 7-11 3-6v-3l-8-4-12-2h-34l-5-1h-10l-6-2 1-2 19 1 4-1v2l27-1 13-8z" fill="#172911"/>
<path transform="translate(315,433)" d="m0 0v3l-3 5h10l2 1 1-3 1 2 41 1 92 1v1l-55 1h-62l-35-1-16-1-4 2h-2l-5 5-10 9-3 3-5 3-14 14-2-1 6-9 16-17 12-9 7-4h2l1-2 1 2 18 1 4-6z" fill="#1A2E13"/>
<path transform="translate(255,646)" d="m0 0 4 4 6 9 3 1-8-11v-1l7 1 6 1 3 5 6 6 10 4 2 1v-3h2v-2h-2l-1 2-6-2-8-5-3-5 21 2 12 3-1 2-7 3-6 8-9 1-3-1h-6l-4-3-1 2-6-2-7-7-4-11z" fill="#FCFCFC"/>
<path transform="translate(277,537)" d="m0 0 16 1 5 1-1 2h-6l-2 9-2-1v-9h-9v13h11l1 1v33l-2 8h-1l-1-30-5 2h-3l2 26h-2l-1-2-1-24-9-1-1-1-1-12v-10l2-1 1 11h8v-15z" fill="#1B2517"/>
<path transform="translate(369,463)" d="m0 0 11 2-6 7-6 6-23-1-19-1 4-4 9-5 2-2 4-1z" fill="#FDFDFD"/>
<path transform="translate(320,545)" d="m0 0h12l-1 15-3 16 2 2-6 20h-3v2h-2v-52z" fill="#FDFDFD"/>
<path transform="translate(651,616)" d="m0 0h1l-1 7-8 3-15 5-34 11-8 3-1 18-1 3-2 1h-6l-2-1v-2l8-1 1-20-1-4 13-4 6-3 25-8 15-5z" fill="#0A1207"/>
<path transform="translate(641,605)" d="m0 0 5 1 4 4v2l-21 7-19 6-8 3-10 4-4-1v-6l10-5 41-14z" fill="#FDFDFD"/>
<path transform="translate(588,393)" d="m0 0h2v2l12 2 15 2 2-1 1 2 12 5 4 6 3 16v17l-4 3-3-1 3-3v-14l-2-12-3-1-1-8-14-5-13-2-10-2-3 3-1 2h4v-3l11 1 2 1v2h2v3h-12v2l-10-2-1 13h-1l-2-17-1-6h3v2l3-1z" fill="#13210E"/>
<path transform="translate(390,523)" d="m0 0h25v2l-7 3-6 5-2 5-1 16 4-1h18l-2 2-5 1-28 1h-31l-2-1v-2h44v-17l3-6 6-5h-9l-6 1 1 6-5 20h-2l3-17v-6l-13 1-5 3-4 5-8 13h-2l2-6 7-11 4-4-4 2-3 3h-2l2-4 5-5 11-1 2-1 9-1z" fill="#13210E"/>
<path transform="translate(527,397)" d="m0 0 2 1-1 5-1 3-6 3-4 5 11 1 16 3v1l-10 1-21-4-37 3-11 2-8 2-15 3-16 5-9 3-16 5-4 2v-3l14-6 12-3 15-5 16-4 18-4 42-4 4-4-4 2-4 1 1-4 6-5 2-3 5 1v3l-4-1v2h4z" fill="#172811"/>
<path transform="translate(439,518)" d="m0 0 2 3h-2l-3 10-7 21 10-2 17-2 7-4 4-5 4-10v-8l2-1 1 2-1 10-4 10v4l-5 1-4 3-5 2-28 3h-8l2-1v-2l5-1 3-11-1-4-3-4v-2h-2l-3-4-5-1v-2h-11v-1l33-3z" fill="#12200D"/>
<path transform="translate(310,542)" d="m0 0 7 2v30l-1 25-9-1 1-42 1-13z" fill="#FDFDFD"/>
<path transform="translate(481,591)" d="m0 0h6v3l-23 2-5 1-35 2h-10l-1 5-4 2-47-2-11-1-3-3 2-6 2-1 1 6 57 3 1-4 3-2 49-3 4-1z" fill="#0E190A"/>
<path transform="translate(500,599)" d="m0 0 1 2 3-1-1 5-8 19-3 15-2 22-2 1-1-3-2 3h-3l-2 2h-2l2-9 7-26 8-23 4-6z" fill="#0E190B"/>
<path transform="translate(691,446)" d="m0 0h4l-3 9 4 2v6l-3 8-4 3-2 8-2 2h-4v-36z" fill="#FDFDFD"/>
<path transform="translate(202,505)" d="m0 0h2v2l5 2v2l-2 1-2 5h2l1-3 4 2 6 5-2 10-3 6-5-5-5-4 1 3 8 7-2 1-12-3v-14l2-13z" fill="#FDFDFD"/>
<path transform="translate(482,621)" d="m0 0h6v2l-8 2-23 3-3 1-15 1h-38l-24-1-38-3-3-3h12l22 2 19 1h56l25-3z" fill="#121F0D"/>
<path transform="translate(352,584)" d="m0 0h25l-1 2h-22v3l26 1h36l1-2 1 5-1 1h-5l-1 3h-15-3l-28-2-11-1-2-5z" fill="#080F06"/>
<path transform="translate(196,539)" d="m0 0 11 1 7 3 8 10v2l4 2 2 3-16-2-4-4 1 3-3-1v-2l-9-1-2-1v-12z" fill="#FDFDFD"/>
<path transform="translate(350,605)" d="m0 0h15l38 2 31 1h37l6-1v3l-3 1-15 1-52-1-56-3z" fill="#14220E"/>
<path transform="translate(193,582)" d="m0 0 10 2 7 2 20 4 11 1-3 4-5 2h-12l-17-3-12-5-3-2 2-4z" fill="#FDFDFD"/>
<path transform="translate(634,429)" d="m0 0h2v14l-10 5-17 4-12 1 1-4h-2v-4l10-2v2h2v-3l9-2h9l6-1z" fill="#FDFDFD"/>
<path transform="translate(587,407)" d="m0 0 6 1 1 6-2 9 1 1v19l-3 2 4 1v8l-6 1-3-21-1-22 1-4z" fill="#FDFDFD"/>
<path transform="translate(253,536)" d="m0 0 6 1 2 42 1 12h-6l-2-14-2-26v-10z" fill="#FDFDFD"/>
<path transform="translate(534,583)" d="m0 0h10l9 3 1 3 6 3-1 3-8-6-5-2h-13l-7 4-1 2h-2l-2 4-4 5-7 11-5 15-3 14v22l3 14v6h-2l-3-12-1-9v-20l2-14 4-13 6-11 7-9 9-10z" fill="#1A2D13"/>
<path transform="translate(322,478)" d="m0 0h25l17 2v2l-5 1-1 4-4 3-3-4-32-1h-5l2 5-6 1 1-2h2l-1-4 5-4z" fill="#F7F9F7"/>
<path transform="translate(244,536)" d="m0 0h6l2 31 2 23-6-1-2-11-2-22z" fill="#FDFDFD"/>
<path transform="translate(650,383)" d="m0 0h2l1 6v1h1l4 24 2 23 1 3-1-26-1-9 2-3 2 17 2 12v12h-8l-5-35-3-17v-7z" fill="#FCFCFC"/>
<path transform="translate(287,443)" d="m0 0m-2 1 3 1-5 6-9 7-4 4h-2v2l-9 7-10 10-7 6-5 8h-2l1-6 9-14 7-9 13-14 2-5 5-1-3 5-6 7-12 13-4 7 7-6 10-10h3l1-3 11-9 3-3h2z" fill="#182B12"/>
<path transform="translate(650,402)" d="m0 0 2 2 2 8 3 26v5h8v3h-8v3l6-1 1 2-2 1-14 2h-10l2-2 16-2v-3l-16 3h-8l-3 2h7v3h-11v-2h-3v-4l11-3 2 1 20-2-5-34z" fill="#26421C"/>
<path transform="translate(495,455)" d="m0 0 2 1v2l-9 7-16 15-9 8-7 8-10 14-5 9 32-3v2l-5 2-21 2h-8v-3l-1-2 10-16 12-14 13-12 6-6h2l1-3h2v-2z" fill="#172811"/>
<path transform="translate(585,530)" d="m0 0 3 1-2 2-23 4-20 4-22 4-25 3-4 1-23 1-1-3 28-2 22-3 15-2 8-2 32-6z" fill="#172811"/>
<path transform="translate(471,571)" d="m0 0 5 1-1 4-22 3h-60l-4-2 18-1 5-1 42-1 16-2z" fill="#111F0D"/>
<path transform="translate(235,537)" d="m0 0h6l4 45v5l-2-1-4-9-3-15-1-11z" fill="#FDFDFD"/>
<path transform="translate(397,525)" d="m0 0h10l-5 5-3 4-1 3v17h-12l5-21-1-7z" fill="#FDFDFD"/>
<path transform="translate(468,447)" d="m0 0 4 2-9 4-12 6-13 8-30 18-16 10-8 6h-2l2-4 10-7 11-7 10-6h2v-2l18-10 13-8 17-9z" fill="#192C13"/>
<path transform="translate(548,562)" d="m0 0 5 1 7 14 1 6-7-6-5-3-10-3-15-2 2-2z" fill="#FDFDFD"/>
<path transform="translate(216,562)" d="m0 0 13 1 5 2 3 13 4 9 2 1-1 3-12-3-2-1v-3l3-1-1-5-4-9-7-3z" fill="#FDFDFD"/>
<path transform="translate(481,669)" d="m0 0 3 1 5 20 7 17 3 5-5-2-5-8-2-5-3-7v-6l-3-1 3 12 5 10v2l-3-1-6-10-1-5v-12h2v-2l-5-3-2-3h5v3h2z" fill="#FDFDFD"/>
<path transform="translate(620,349)" d="m0 0h27v2l-5 1 5 6h-3l-5-6h-4-13l-11 3-3 3 13-5h13l1 2-16 2-10 4-7 6-1 2-2-1 1-5-3 2 2-4 9-8 7-3z" fill="#12200D"/>
<path transform="translate(285,440)" d="m0 0h5l-6 7-11 9-5 4-1 2-5 3-14 14-2-1 6-9 16-17 12-9z" fill="#FDFDFD"/>
<path transform="translate(201,576)" d="m0 0 14 5 3 2 4-1 4 2 2 2 5 2 8 2v1h-11l-26-5-7-2-3-1v-3z" fill="#152510"/>
<path transform="translate(581,329)" d="m0 0 4 2-12 4-6 4 11 3 3 3-16-2h-34l-5-1h-10l-6-2 1-2 19 1 4-1v2l27-1 13-8z" fill="#1A2E13"/>
<path transform="translate(224,534)" d="m0 0 7 1 1 5 1 21-8-6-1-3h-2l-4-8 5-3v-6z" fill="#FDFDFD"/>
<path transform="translate(672,417)" d="m0 0h2v51l2 13v7l-2 2h-11l-2-5v-9l1-4h4l-2 4v7l2 4 7 1v-7h-5l1-6-1-1v-3l2-8h1z" fill="#24401B"/>
<path transform="translate(423,337)" d="m0 0 4 1v2l-3 2h-3v2l9-2 45-5h7v3l-15 1-15 2-34 4h-5v-1l-5-1 2-2 5-3z" fill="#2D4425"/>
<path transform="translate(648,346)" d="m0 0 1 2 3 1 5 12 2 13h-2v5l-2-3-2-8-1 6h-1l-2-12-6-8-2-3h6v-2h-25v-1h26z" fill="#3B4C36"/>
<path transform="translate(202,504)" d="m0 0 5 1 14 8 2 3-1 5 2 2-1 3-2-2-3 7-2 6-4 2-9-8v-3l4 2 6 6 4-12-1-4-6-5h-2l-1 2h-2l2-6h2v-2l-5-2v-2z" fill="#101D0C"/>
<path transform="translate(649,340)" d="m0 0 7 1 4 5v3l9 2v21l1 2v8l-2-4-1-6-4-2-2-10-4-12-5-5-16-1v-1z" fill="#1B3014"/>
<path transform="translate(637,351)" d="m0 0 4 2v2l3 1 3 5 5 22-2 1v7l2 9-1 4v-2h-2l-6-33-5-12-2-4z" fill="#182A12"/>
<path transform="translate(354,587)" d="m0 0h62v3l-2 1h-44l-14-1-2-1z" fill="#FDFDFD"/>
<path transform="translate(591,507)" d="m0 0h1v75l-2 26-3-2 2-27 1-33-1-15-1-5 2-17z" fill="#1C3114"/>
<path transform="translate(652,375)" d="m0 0 2 1 2 8h2l2 14v9l2 23v10l-2 1-2-14-2-19-2-13v-5l1-3-3-8z" fill="#2B4B20"/>
<path transform="translate(256,614)" d="m0 0h10l52 7 14 1 5 2v1h-11l-22-2-11-2-25-3-12-3z" fill="#1F3717"/>
<path transform="translate(580,398)" d="m0 0h3v2l5-1v5h4v-3l11 1 2 1v2h2v3h-12v2l-10-2-1 13h-1l-2-17z" fill="#101D0C"/>
<path transform="translate(190,597)" d="m0 0 5 1 18 5 9 3 19 4 22 3v1l-12 1-17-3-19-4-16-5-9-3z" fill="#14220E"/>
<path transform="translate(464,611)" d="m0 0h8v1l-14 4-23 3h-28l-4-1v-2h23l18-2 7-1 11-1z" fill="#1A2D13"/>
<path transform="translate(384,465)" d="m0 0 3 1v9h-3l-2 6-9 12-2 3h-2l-2 4-3 4h-4v-3l5-3 4-5-2-10-6 3h-2v-3l5-2 1-2h3l4 10 8-11-1-6 2-1 3 1z" fill="#15250F"/>
<path transform="translate(515,637)" d="m0 0 5 4 1 21-3 3h4l2 4-1 5h-4l-5-12v-5h2l1-6h-3v-8z" fill="#FDFDFD"/>
<path transform="translate(578,568)" d="m0 0 2 4 4 17 1 13v15l-1 10h-4l1-20v-12l-4-24z" fill="#111E0D"/>
<path transform="translate(489,665)" d="m0 0h2l3 16 7 17 4 7-1 3-4-5-6-12-4-13-1-4 1 9 1 6-4-2-3-14v-4l5 2z" fill="#0E190A"/>
<path transform="translate(592,398)" d="m0 0 17 3 12 3 9 4v3l-7-1-16-3v-2h-2v-2l-11-1-2-1v3h-4l1-5z" fill="#5F7059"/>
<path transform="translate(533,639)" d="m0 0 7 1 2 3-1 7-4 5-7-1-1-8 3-6z" fill="#162610"/>
<path transform="translate(648,614)" d="m0 0 4 1-1 2-10 3-45 15-7 3-4-1 10-5 31-10 8-3z" fill="#FDFDFD"/>
<path transform="translate(594,446)" d="m0 0 4 3v3l12-1 8-2h5l-1 3h3v2l-2 1-26 2h-8l1-3h4z" fill="#0C1508"/>
<path transform="translate(481,591)" d="m0 0h6v3l-23 2-5 1-15 1h-12v-3l31-2 4-1z" fill="#0D1609"/>
<path transform="translate(658,513)" d="m0 0h7l-2 2-33 8-17 4-9 2h-7l1-2 15-3 15-4z" fill="#233D1A"/>
<path transform="translate(336,623)" d="m0 0h12l22 2 19 1 5 1v2h-17l-38-3z" fill="#1A2D13"/>
<path transform="translate(505,681)" d="m0 0 2 3 7 14 9 7 3 1h8l8-4h3l5-2-2 4-8 3-9 3-9-2-6-4-7-7-5-10z" fill="#162610"/>
<path transform="translate(238,594)" d="m0 0m-28 1 11 1h12l5-1-1 3 6 2 14 2 2 3-13-1-11-3-24-3-6-1v-1z" fill="#111D0C"/>
<path transform="translate(367,530)" d="m0 0 3 1-7 8-6 11v3l40 1v1h-42l-3-1 1-8-1-2h4l1-4 2-4 5-3z" fill="#1D3215"/>
<path transform="translate(382,467)" d="m0 0h2v5l-4 1 1 5-8 11-2 1-3-10 4-4h3l1-4z" fill="#FAFAFA"/>
<path transform="translate(364,483)" d="m0 0h3l3 8-2 4-5 6-4-1-1-3h3l-3-5 1-4z" fill="#FDFDFD"/>
<path transform="translate(403,553)" d="m0 0h18l-2 2-5 1-28 1h-31l-2-1v-2h44z" fill="#050803"/>
<path transform="translate(631,419)" d="m0 0 2 1 1 15-2 5-10 1-14 1v3l-9-1 3-3 9-3 21-1-1-2z" fill="#162610"/>
<path transform="translate(584,415)" d="m0 0h1l1 19 1 5v7h-2v3l-6-1 1-9 3-9v-9z" fill="#29481E"/>
<path transform="translate(639,603)" d="m0 0h5l-3 3-19 7-21 7-5-1 3-2 36-12z" fill="#1E3416"/>
<path transform="translate(642,526)" d="m0 0h6l-3 3-15 3-28 7-5-1 3-2 30-7z" fill="#172811"/>
<path transform="translate(482,621)" d="m0 0h6v2l-8 2-23 3-3 1h-12l3-1v-2l25-3z" fill="#1B2F14"/>
<path transform="translate(353,461)" d="m0 0h16l4 2-4 1-24 1-5 2-8 5-4 2 1-4 10-6 3-2z" fill="#172911"/>
<path transform="translate(350,605)" d="m0 0h15l20 1 7 1v3l-41-2z" fill="#050803"/>
<path transform="translate(201,576)" d="m0 0 14 5 3 2 4-1 4 2v3l-13-2-18-4 4-4z" fill="#FDFDFD"/>
<path transform="translate(475,337)" d="m0 0h7v3l-15 1-15 2-18 1 4-3z" fill="#2C4D20"/>
<path transform="translate(258,603)" d="m0 0 9 1 25 3 12 1v1h-5v2l-29-3-11-2z" fill="#213B19"/>
<path transform="translate(662,397)" d="m0 0h1l5 42v3l-3 1-2-18-2-12v-10z" fill="#192B12"/>
<path transform="translate(269,539)" d="m0 0 7 1v13h-8l-1-4 1-9z" fill="#FDFDFD"/>
<path transform="translate(574,450)" d="m0 0 7 1 5 3-1 2-22-1-5-1 1-2z" fill="#FDFDFD"/>
<path transform="translate(662,351)" d="m0 0h7v21l1 2v8l-2-4-1-4-5-21z" fill="#FDFDFD"/>
<path transform="translate(202,568)" d="m0 0 6 3h2v-2l9 1v2l5-1 1 3v5l-4-1v-3h-2l1 2-6-1-9-3-4-4z" fill="#879F7E"/>
<path transform="translate(647,612)" d="m0 0 4 1-10 5-14 4-8 3-7 2v-2l-2-1 19-6z" fill="#12200D"/>
<path transform="translate(666,473)" d="m0 0h5v2h-2l-1 6 3-1 2 1 1 5-1 2h-7l-3-5v-7z" fill="#FDFDFD"/>
<path transform="translate(442,513)" d="m0 0 1 2-2 4 32-3v2l-5 2-21 2h-8v-3l-1-2z" fill="#213A18"/>
<path transform="translate(299,609)" d="m0 0h9l5 1 28 2 2 2h-22l-15-2-7-1z" fill="#060B04"/>
<path transform="translate(270,446)" d="m0 0 2 1-3 4-6 7-12 13-6 10h-3l2-5 8-10 13-14 2-5z" fill="#13210E"/>
<path transform="translate(627,340)" d="m0 0h22v1l-18 2-16 2-12 5h-3l5-5 13-4z" fill="#0C1609"/>
<path transform="translate(468,447)" d="m0 0 4 2-9 4-12 6-13 8-2-3 19-11z" fill="#213A18"/>
<path transform="translate(600,348)" d="m0 0 2 1-6 8-4 5-11 17-2 5-2-3 2-5 12-18z" fill="#121F0D"/>
<path transform="translate(587,449)" d="m0 0h1v6l4 2-3 1 3 21v5h-2l-1-2-1-12-1-3-3 5-1-2 3-6-1-9h2z" fill="#213A18"/>
<path transform="translate(501,544)" d="m0 0h6l-2 1v2l-13 2-23 1-1-3 28-2z" fill="#243E1A"/>
<path transform="translate(572,403)" d="m0 0 3 1-9 15-8 16-3 5-1-3 9-19z" fill="#15250F"/>
<path transform="translate(423,523)" d="m0 0h13l-4 12-3-1-6-8z" fill="#FDFDFD"/>
<path transform="translate(621,353)" d="m0 0h13l1 2-16 2-10 4-7 6-1 2-2-1 2-5 9-6z" fill="#304429"/>
<path transform="translate(489,636)" d="m0 0 1 4-1 7 2 3-1 11-2 1-1-3-2 3h-2l1-8z" fill="#A6B0A2"/>
<path transform="translate(310,484)" d="m0 0h2l1 5-2 2-1 4-7 3h-3l1-5h-2l1-3 7-1 1-4z" fill="#101C0C"/>
<path transform="translate(241,533)" d="m0 0 14 1 4 2h-6l-1 12h-2v-12h-7v13h-2l-1-14z" fill="#0C1609"/>
<path transform="translate(374,460)" d="m0 0 5 2 6 2-1 3-8 6-1 3-5 3-2 1-3-1-1 2-5-1v-1l9-2 11-11-8-2z" fill="#1F3717"/>
<path transform="translate(427,520)" d="m0 0 9 2v1l-13 1 6 8 1 3h-3l-2-5h-2l-3-4-5-1v-2h-11v-1z" fill="#1E3516"/>
<path transform="translate(652,375)" d="m0 0 2 1 2 8h2l2 14v7l-2 2v-8h-2v5h-1l-1-14 1-3-3-8z" fill="#486A3C"/>
<path transform="translate(243,536)" d="m0 0h1l2 30 1 13h-2l-1 3-2-22v-11z" fill="#1F3516"/>
<path transform="translate(267,534)" d="m0 0h12l14 1 5 2v2l-19-1-12-1z" fill="#FDFDFD"/>
<path transform="translate(316,484)" d="m0 0h13l19 1-3 2h-25l1 3-5-1-2-4z" fill="#0E180A"/>
<path transform="translate(320,487)" d="m0 0h29l3 3h-26-3l-3-1z" fill="#FDFDFD"/>
<path transform="translate(650,402)" d="m0 0 2 2 2 8 3 29h-2l-3-16-2-15z" fill="#14230E"/>
<path transform="translate(464,611)" d="m0 0h8v1l-14 4-13 2h-8l2-1v-2l12-2 11-1z" fill="#1E3516"/>
<path transform="translate(256,614)" d="m0 0h10l22 3 6 2-1 2-25-3-12-3z" fill="#14240F"/>
<path transform="translate(585,530)" d="m0 0 3 1-2 2-23 4-9 2-4-1h2v-2l21-4z" fill="#1D3316"/>
<path transform="translate(439,518)" d="m0 0 2 3h-2l-3 10-4 12-3 1v-7l-1-2h4l1-5 3-8h-8l2-2z" fill="#14230F"/>
<path transform="translate(637,351)" d="m0 0 4 2v2l3 1 3 5 3 12v8l-2 1-3-15-7-14z" fill="#FDFDFD"/>
<path transform="translate(500,645)" d="m0 0h1l1 19 3 14v6h-2l-3-12-1-9v-17z" fill="#0C1509"/>
<path transform="translate(491,678)" d="m0 0h2l8 20 4 7-1 3-4-5-6-12-3-9z" fill="#162610"/>
<path transform="translate(315,433)" d="m0 0v3l-3 5v2h-21l-4 2 2-4-2-2h2l1-2 1 2 18 1 4-6z" fill="#233D1A"/>
<path transform="translate(517,580)" d="m0 0h2l-1 4-9 10-4 7-6-1 2-6 3-1 1 3 6-10 5-4z" fill="#152510"/>
<path transform="translate(194,555)" d="m0 0 9 3 10 3 2 2-1 4-14-5-3-2v-2h-2z" fill="#FAFBFA"/>
<path transform="translate(485,575)" d="m0 0h2l-2 4-5 5-4 2-14 2-8-1 2-2 18-2 7-4z" fill="#1A2E13"/>
<path transform="translate(592,398)" d="m0 0 17 3 5 1-1 3-4 1-4-1v-2l-11-1-2-1v3h-4l1-5z" fill="#FDFDFD"/>
<path transform="translate(631,445)" d="m0 0 9 2v2h-8l-3 2h7v3h-11v-2h-3v-4z" fill="#21351A"/>
<path transform="translate(583,605)" d="m0 0 2 1v11l-1 10h-4l1-20z" fill="#14240F"/>
<path transform="translate(534,583)" d="m0 0h10l9 3 1 3 6 3-1 3-8-6-5-2-15-1z" fill="#1B2D15"/>
<path transform="translate(384,465)" d="m0 0 3 1v9h-3l-2 6-6 8-2-2 6-9-1-6 2-1 3 1z" fill="#162710"/>
<path transform="translate(531,395)" d="m0 0 4 1v3l3-3 2 2-1 3-2 1v2h6l2 1v2l-8-1-3-1-4-1v-8z" fill="#203818"/>
<path transform="translate(408,481)" d="m0 0h2l-2 4-16 10-8 6h-2l2-4 10-7 11-7z" fill="#192C12"/>
<path transform="translate(346,602)" d="m0 0 35 2 3 2h-35l-3-1z" fill="#FDFDFD"/>
<path transform="translate(648,346)" d="m0 0 1 2 2 1-1 1 1 6h-3l-1 3-6-8h6v-2h-25v-1h26z" fill="#5E8352"/>
<path transform="translate(228,608)" d="m0 0 35 5v1l-12 1-17-3-4-2z" fill="#1B3014"/>
<path transform="translate(392,607)" d="m0 0 41 1v1h-21v2l-19-1z" fill="#26421C"/>
<path transform="translate(250,548)" d="m0 0h2l1 3 2 29-3-1-2-23z" fill="#12200D"/>
<path transform="translate(220,538)" d="m0 0 4 1-1 3-4 2 3 6v2h2l5 6h-3l-5-5-8-10-2-1v-2l6 1z" fill="#25401B"/>
<path transform="translate(591,507)" d="m0 0h1v40l-2-1-1-15-1-5 2-17z" fill="#335825"/>
<path transform="translate(511,338)" d="m0 0 19 1 4-1v2h7v2l-10 1-5-1h-10l-6-2z" fill="#162710"/>
<path transform="translate(538,434)" d="m0 0 7 6 5 5-4-1-9-6-6 4-5 2h-4l1-3 7-1v-2z" fill="#1D3215"/>
<path transform="translate(318,540)" d="m0 0 13 1 1 2h-2v2h-10l-1 3h-2v-4h-5v-1l5-1z" fill="#666F63"/>
<path transform="translate(287,443)" d="m0 0m-2 1 3 1-5 6-9 7-4 4h-2v2l-3-1 5-5 12-11h2z" fill="#14240F"/>
<path transform="translate(300,537)" d="m0 0 8 1 9 2-1 2-6 1-1 13h-1l-1-13-7-2z" fill="#8DA385"/>
<path transform="translate(558,644)" d="m0 0h1v9l-4 16-2 4h-3l3-9 3-11 1-8z" fill="#0F1A0B"/>
<path transform="translate(209,510)" d="m0 0 4 1 7 4v3l-5 1-5-4h-2l-1 2h-2l2-6z" fill="#1F3617"/>
<path transform="translate(472,520)" d="m0 0 2 2-1 10-4 10v4l-6 1 1-4 3-4 4-10v-8z" fill="#1D3315"/>
<path transform="translate(495,455)" d="m0 0 2 1v2l-9 7-12 11-2-2 5-5h2l1-3h2v-2z" fill="#1D3315"/>
<path transform="translate(580,437)" d="m0 0 1 2-2 9 6 1v-3h2v9l-12-6 2-6 2-5z" fill="#152510"/>
<path transform="translate(345,599)" d="m0 0 4 1 1 2h-4v3h3v2h-12l-5-3v-1h8l3 2v-5z" fill="#1D3215"/>
<path transform="translate(579,343)" d="m0 0 4 1 6 4 2 5h-3l-6 11h-3l2-5 3-5 1-5-5-4z" fill="#1C3014"/>
<path transform="translate(518,627)" d="m0 0 4 1 3 1-2 6-3 3-4-2 1-7z" fill="#FDFDFD"/>
<path transform="translate(540,398)" d="m0 0 9 2v3l2 4-14-3-1-3 3-1z" fill="#A1AF9C"/>
<path transform="translate(488,688)" d="m0 0 3 1 8 18 2 4h-3l-5-8-5-13z" fill="#152510"/>
<path transform="translate(487,656)" d="m0 0h1l1 5 2-1v5h-2v6l-4-2 2-6h-3l-2 4-2-1 2-7 1 3h2z" fill="#CBD2C8"/>
<path transform="translate(531,584)" d="m0 0m-2 1 4 2-7 4-1 2h-2l-2 4-4 5-2 3-3-1 6-8 9-10z" fill="#162710"/>
<path transform="translate(519,414)" d="m0 0 16 2 9 2v1l-10 1-21-4v-1z" fill="#1D3416"/>
<path transform="translate(282,538)" d="m0 0h11l5 1-1 2h-6l-2 9-2-1v-9h-9z" fill="#223C19"/>
<path transform="translate(580,363)" d="m0 0 1 3-8 12-4 7-4 2 6-11 7-11z" fill="#13220E"/>
<path transform="translate(371,528)" d="m0 0 1 2-3 5-7 10-4 7h-2l2-6 7-11 4-5z" fill="#192C12"/>
<path transform="translate(556,455)" d="m0 0h20l9 1v2h-12l-17-1z" fill="#0E190B"/>
<path transform="translate(582,436)" d="m0 0h2l1 5v8l-6-1 1-9z" fill="#FDFDFD"/>
<path transform="translate(336,623)" d="m0 0h12l14 1v1h-5v2l-18-1z" fill="#213A18"/>
<path transform="translate(357,546)" d="m0 0 1 2-1 5 40 1v1h-42l-2-2 3-6z" fill="#6B905D"/>
<path transform="translate(658,513)" d="m0 0h7l-2 2-22 5-4-1 3-2z" fill="#15250F"/>
<path transform="translate(246,479)" d="m0 0m-1 1m-2 0 2 1-1 4-7 10h-2l1-6 5-8z" fill="#0C1509"/>
<path transform="translate(432,595)" d="m0 0h17l10 1v1l-15 1h-12z" fill="#1E3416"/>
<path transform="translate(403,553)" d="m0 0h18l-2 2-5 1h-17l1-2z" fill="#060C05"/>
<path transform="translate(235,531)" d="m0 0h9l5 1 15 1 2 2-3 1-3-1-25-1z" fill="#FDFDFD"/>
<path transform="translate(505,413)" d="m0 0h5l2 3-12 1h-12l3-1v-2z" fill="#203818"/>
<path transform="translate(659,378)" d="m0 0h1l2 14v11l-2-1-2-12v-6l-2-1 2-1z" fill="#101C0C"/>
<path transform="translate(525,616)" d="m0 0 4 4 1 4h-2l-1 3-4-2-2-5z" fill="#FDFDFD"/>
<path transform="translate(352,584)" d="m0 0h25l-1 2h-22v3h-2z" fill="#070C05"/>
<path transform="translate(216,526)" d="m0 0 2 4-2 7-4 2-9-8v-3l4 2 6 6z" fill="#203818"/>
<path transform="translate(428,544)" d="m0 0h3l-2 8 9 1v1l-19 1 2-1v-2l5-1z" fill="#233D1A"/>
<path transform="translate(219,529)" d="m0 0 2 1v8l-5 4-4-3 4-3 2-6z" fill="#FDFDFD"/>
<path transform="translate(541,340)" d="m0 0h20l-1 3h-13l-6-1z" fill="#0F1B0B"/>
<path transform="translate(249,646)" d="m0 0 4 1 3 9 3 5 2 4-7-6-5-8z" fill="#FDFDFD"/>
<path transform="translate(482,621)" d="m0 0h6v2l-8 2-13 1 3-3z" fill="#14220E"/>
<path transform="translate(639,603)" d="m0 0h5l-3 3-14 5h-5l3-3 13-4z" fill="#15240F"/>
<path transform="translate(239,600)" d="m0 0 18 2 2 3-13-1-9-2z" fill="#12200D"/>
<path transform="translate(341,612)" d="m0 0h11l15 1v1h-10v2l-16-1z" fill="#233E1A"/>
<path transform="translate(662,472)" d="m0 0h4l-2 4v7l3 6h-5l-1-4v-9z" fill="#1A2E13"/>
<path transform="translate(350,605)" d="m0 0h15l2 1v2h-16z" fill="#1C3115"/>
<path transform="translate(400,531)" d="m0 0 3 1-3 6-1 16-2-2v-15z" fill="#152510"/>
<path transform="translate(656,399)" d="m0 0h2l2 18v9l-2-4-2-14z" fill="#080E06"/>
<path transform="translate(611,438)" d="m0 0 6 1v2l-9 1v3l-9-1 3-3z" fill="#13210E"/>
<path transform="translate(536,641)" d="m0 0 3 2v6l-3 3-3-1 1-7z" fill="#FDFDFD"/>
<path transform="translate(403,523)" d="m0 0h12v2l-7 3-4 3-3-1 5-4-4-2z" fill="#080E06"/>
<path transform="translate(557,629)" d="m0 0 3 3v17l-3-4z" fill="#213918"/>
<path transform="translate(241,533)" d="m0 0 8 1-1 2h-5v13h-2l-1-14z" fill="#070C05"/>
<path transform="translate(452,498)" d="m0 0 1 2-7 10-4 4-1-2 7-11z" fill="#14230F"/>
<path transform="translate(448,457)" d="m0 0h3l-1 3-12 7-2-3z" fill="#1F3516"/>
<path transform="translate(519,399)" d="m0 0 5 1v3l-4-1-4 5-3 4h-3l1-4 6-5z" fill="#1D3315"/>
<path transform="translate(621,353)" d="m0 0h13l1 2-16 2h-5l1-2z" fill="#1D3315"/>
<path transform="translate(877,142)" d="m0 0h3v9h-4l-3-5 2-1 2 1-1-3z" fill="#3F6E2E"/>
<path transform="translate(613,524)" d="m0 0h6l-3 2-12 3h-7l1-2z" fill="#182A11"/>
<path transform="translate(411,432)" d="m0 0 4 1-2 2-12 4-4 2v-3z" fill="#243F1A"/>
<path transform="translate(550,673)" d="m0 0h2l-2 4-8 9-3 1 2-5 5-5z" fill="#1A2D13"/>
<path transform="translate(612,533)" d="m0 0 4 1-2 2-12 3-5-1 3-2z" fill="#1E3516"/>
<path transform="translate(202,504)" d="m0 0 5 1 12 7-1 3-9-5-5-3v-2z" fill="#182B12"/>
<path transform="translate(593,437)" d="m0 0 3 1v4l4 1v2h-4l-1 3v-2h-6l2-3h2z" fill="#26431C"/>
<path transform="translate(674,425)" d="m0 0 1 4h2l2 11v7h-2l-3-17z" fill="#172811"/>
<path transform="translate(487,651)" d="m0 0 3 1v9l-2 1-1-3-2 3h-2l1-4z" fill="#111E0C"/>
<path transform="translate(503,626)" d="m0 0h1l-1 9-2 10-2 1 2-17z" fill="#13210E"/>
<path transform="translate(265,537)" d="m0 0h12l-1 3h-7l-1 9h-1z" fill="#14230F"/>
<path transform="translate(472,516)" d="m0 0 1 2-5 2h-13l2-2 3-1z" fill="#1F3717"/>
<path transform="translate(509,445)" d="m0 0 3 1-4 4-10 7-2-1 5-5z" fill="#14230F"/>
<path transform="translate(960,306)" d="m0 0h2l-2 5-8 13-1-2 7-14z" fill="#3A652B"/>
<path transform="translate(470,672)" d="m0 0h2l4 8v8l-2-2-4-11z" fill="#FDFDFD"/>
<path transform="translate(357,625)" d="m0 0h13l5 1v2h-9l-9-1z" fill="#162710"/>
<path transform="translate(428,427)" d="m0 0 3 1-1 2-13 4-3-1 1-2z" fill="#182A12"/>
<path transform="translate(652,375)" d="m0 0 2 1 2 8h2v14h-1l-2-11-3-8z" fill="#95B08C"/>
<path transform="translate(513,643)" d="m0 0h1v8h3l1 4-3 3-2 3z" fill="#395B2E"/>
<path transform="translate(194,580)" d="m0 0 14 3 1 3h-5l-7-2-3-1z" fill="#1F3717"/>
<path transform="translate(481,682)" d="m0 0 4 2v6l1 5h-3l-3-12z" fill="#172911"/>
<path transform="translate(285,607)" d="m0 0 19 1v1h-5v2l-11-1z" fill="#233E1A"/>
<path transform="translate(442,423)" d="m0 0h4v2l-13 4-3-1 1-2z" fill="#12200D"/>
<path transform="translate(374,471)" d="m0 0h2l-1 5-5 3-2 1-3-1-1 2-5-1v-1l9-2z" fill="#26431C"/>
<path transform="translate(475,337)" d="m0 0h7v3l-13 1-4-2z" fill="#1F3617"/>
<path transform="translate(525,673)" d="m0 0h9l-5 5-6-2z" fill="#FDFDFD"/>
<path transform="translate(481,591)" d="m0 0h6v3h-10l-10-1v-1z" fill="#223B19"/>
<path transform="translate(367,530)" d="m0 0 3 1-7 8-4 7-1-3 5-9z" fill="#FDFDFD"/>
<path transform="translate(408,481)" d="m0 0h2l-2 4-8 5h-3v-2z" fill="#13220E"/>
<path transform="translate(323,474)" d="m0 0 2 1-4 5-9 5v-3l5-4z" fill="#203818"/>
<path transform="translate(315,433)" d="m0 0v3l-3 5v2l-14-1v-1l11-1 4-6z" fill="#1B2F14"/>
<path transform="translate(546,421)" d="m0 0 1 3-6 9-4 2 2-4 6-9z" fill="#121F0D"/>
<path transform="translate(531,395)" d="m0 0 4 1-1 9-4-1v-8z" fill="#192B12"/>
<path transform="translate(203,632)" d="m0 0 9 3 10 4v1l-8-1-10-5z" fill="#FDFDFD"/>
<path transform="translate(322,622)" d="m0 0h10l5 2v1h-11l-4-1z" fill="#030602"/>
<path transform="translate(256,614)" d="m0 0h10l9 2v1h-10l-9-2z" fill="#0B1308"/>
<path transform="translate(509,582)" d="m0 0 1 4-4 7-4 1 2-6 2-4z" fill="#101D0C"/>
<path transform="translate(518,542)" d="m0 0 2 1 1 2-16 1 3-3z" fill="#101D0C"/>
<path transform="translate(622,351)" d="m0 0m-3 1 3 1-12 5-4 3-2-1 7-6z" fill="#FDFDFD"/>
<path transform="translate(638,349)" d="m0 0h9v2l-5 1 5 6h-3l-6-7z" fill="#182911"/>
<path transform="translate(623,349)" d="m0 0h15v4l-3-1-13-1z" fill="#070C05"/>
<path transform="translate(532,338)" d="m0 0h2v2h7v2l-10 1-5-4z" fill="#233D1A"/>
<path transform="translate(620,621)" d="m0 0 4 1-1 2-11 3v-2l-2-1z" fill="#1A2E13"/>
<path transform="translate(635,616)" d="m0 0 2 1v2l-10 3-4 1 1-3z" fill="#162710"/>
<path transform="translate(628,437)" d="m0 0 3 1-5 3-9-1-4-2z" fill="#243F1A"/>
<path transform="translate(663,357)" d="m0 0h1l3 15-4-2-1-11z" fill="#1A2E13"/>
<path transform="translate(549,700)" d="m0 0v3l-3 2-9 3v-3l6-4 4 1z" fill="#3A5431"/>
<path transform="translate(460,624)" d="m0 0h9l-2 1v2l-12 1 1-3z" fill="#1D3315"/>
<path transform="translate(529,614)" d="m0 0 7 2-1 4-3 2-3-5z" fill="#FDFDFD"/>
<path transform="translate(227,587)" d="m0 0 12 2 2 2h-11l-4-2z" fill="#213A18"/>
<path transform="translate(462,545)" d="m0 0 1 3-8 4h-3v-2l-3-1 10-2z" fill="#172911"/>
<path transform="translate(255,534)" d="m0 0 10 1 2-1v3l-6 1v2h-2v-3l-3-1z" fill="#29471E"/>
<path transform="translate(390,523)" d="m0 0h13l-1 2-5 1h-8z" fill="#1B2F14"/>
<path transform="translate(583,370)" d="m0 0 3 1-6 10-2 3-1-5z" fill="#1B2F14"/>
<path transform="translate(611,343)" d="m0 0h3v2l-12 6-2-1 5-5z" fill="#0B1408"/>
<path transform="translate(309,621)" d="m0 0h9l4 1v2h-10l-3-1z" fill="#182A12"/>
<path transform="translate(278,556)" d="m0 0 4 1-3 1 3 3 2-4h2l-2 4-4 3h-2z" fill="#FDFDFD"/>
<path transform="translate(590,469)" d="m0 0h1l1 15h-2l-1-2v-12z" fill="#305424"/>
<path transform="translate(464,443)" d="m0 0h7l3 2-4 2-9-1-2-2z" fill="#26431C"/>
<path transform="translate(636,353)" d="m0 0h3l6 12-3 1-4-9z" fill="#203818"/>
<path transform="translate(253,647)" d="m0 0 3 1 3 10-3 1-3-8z" fill="#192B12"/>
<path transform="translate(367,527)" d="m0 0h5l-3 3-7 6h-2l2-4z" fill="#080E06"/>
<path transform="translate(439,518)" d="m0 0 2 3h-2l-1 3h-2v-2h-8l2-2z" fill="#040703"/>
<path transform="translate(620,349)" d="m0 0 3 1-1 2-7 2-4-1 1-2z" fill="#172811"/>
<path transform="translate(600,348)" d="m0 0 2 1-6 8-3 2-1-2 7-8z" fill="#1D3315"/>
<path transform="translate(438,341)" d="m0 0h12l-3 2-5 1h-8z" fill="#0A1207"/>
<path transform="translate(503,593)" d="m0 0 1 4 2 1-1 3-6-1 2-6z" fill="#31422A"/>
<path transform="translate(389,537)" d="m0 0 1 4-3 12h-2l2-12z" fill="#172911"/>
<path transform="translate(210,510)" d="m0 0 5 2 5 3v3l-4-1-6-5z" fill="#FDFDFD"/>
<path transform="translate(673,481)" d="m0 0 2 1 1 6-2 2h-11l4-2h6z" fill="#29471E"/>
<path transform="translate(340,463)" d="m0 0m-1 1m-1 1m-2 1 2 1v2l-10 5 1-4z" fill="#13210E"/>
<path transform="translate(270,446)" d="m0 0 2 1-3 4-5 6-2-2 4-5 1-3z" fill="#374E2F"/>
<path transform="translate(513,441)" d="m0 0 9 1v2l-11 2z" fill="#0D1609"/>
<path transform="translate(449,611)" d="m0 0h15l-2 2-12 1-2-2z" fill="#FDFDFD"/>
<path transform="translate(220,527)" d="m0 0 3 3 1 2 4 2-4 1-1 3h-2z" fill="#162610"/>
<path transform="translate(587,449)" d="m0 0h1v6l4 2-3 1-1 3-3-3v-3h2z" fill="#26421C"/>
<path transform="translate(582,663)" d="m0 0h2v3l-2 1h-6l-2-1v-2z" fill="#1E3416"/>
<path transform="translate(241,645)" d="m0 0h5l1 9h-2l-4-7z" fill="#FDFDFD"/>
<path transform="translate(318,611)" d="m0 0h11v1h-5v2l-14-1v-1z" fill="#27441D"/>
<path transform="translate(273,606)" d="m0 0h9l4 2v1h-9z" fill="#060C05"/>
<path transform="translate(210,595)" d="m0 0 11 1-3 1-1 2-12-2v-1z" fill="#223C19"/>
<path transform="translate(262,574)" d="m0 0h1l1 16h-2l-1-3v-8z" fill="#223C19"/>
<path transform="translate(578,568)" d="m0 0 2 4 2 8h-2l-1 2-2-11z" fill="#192C12"/>
<path transform="translate(202,568)" d="m0 0 11 5v2l-6-1-6-4z" fill="#FDFDFD"/>
<path transform="translate(468,547)" d="m0 0h17v1l-10 1-6 1z" fill="#0D180A"/>
<path transform="translate(248,471)" d="m0 0h2l-2 5-3 5h-3l2-5z" fill="#192C12"/>
<path transform="translate(573,448)" d="m0 0 3 1-2 2-13 1-1-2z" fill="#29481E"/>
<path transform="translate(657,374)" d="m0 0h2v8h-4l-1-5h2z" fill="#060C05"/>
<path transform="translate(581,329)" d="m0 0 4 2-9 3-3-1 1-2z" fill="#172811"/>
<path transform="translate(534,706)" d="m0 0h3l-1 3-8 1-2-1v-2z" fill="#091007"/>
<path transform="translate(211,571)" d="m0 0 7 1 2 5-6-1-3-3z" fill="#657160"/>
<path transform="translate(642,526)" d="m0 0h6l-3 3-9 1 1-3z" fill="#0E190A"/>
<path transform="translate(650,383)" d="m0 0h2l1 6-3 4-1-2v-7z" fill="#FDFDFD"/>
<path transform="translate(308,660)" d="m0 0 1 3-1 1h-5l-1 3-3 1 2-4 4-3z" fill="#FDFDFD"/>
<path transform="translate(404,594)" d="m0 0h8l-1 3h-15v-1l8-1z" fill="#476E3A"/>
<path transform="translate(253,563)" d="m0 0h1l1 17-3-1z" fill="#25411B"/>
<path transform="translate(220,538)" d="m0 0 4 1-1 3-6 2v-3z" fill="#233C19"/>
<path transform="translate(216,526)" d="m0 0 2 4-2 7-4 2 2-5z" fill="#2D4E21"/>
<path transform="translate(381,478)" d="m0 0 1 3-6 8-2-2 6-8z" fill="#192B12"/>
<path transform="translate(417,475)" d="m0 0 2 1-2 1zm-2 2 3 1-3 3-5 2-1-3z" fill="#203818"/>
<path transform="translate(671,473)" d="m0 0 2 2v6h-5l1-6h2z" fill="#3B5931"/>
<path transform="translate(538,437)" d="m0 0 4 1 8 6-3 1-9-6z" fill="#14220E"/>
<path transform="translate(558,428)" d="m0 0h2l-1 5-4 7-1-3z" fill="#111E0C"/>
<path transform="translate(665,431)" d="m0 0h2l1 11-3 1z" fill="#1E3416"/>
<path transform="translate(481,415)" d="m0 0h10l-3 2-3 1h-7z" fill="#070D05"/>
<path transform="translate(641,351)" d="m0 0h6l1 8-5-5z" fill="#FDFDFD"/>
<path transform="translate(568,341)" d="m0 0h7l6 3-4 1-9-3z" fill="#0A1107"/>
<path transform="translate(415,340)" d="m0 0 4 1v3l-11 1 2-2z" fill="#FDFDFD"/>
</svg>
